<?xml version="1.0" encoding="UTF-8" standalone="no"?><!DOCTYPE svg PUBLIC "-//W3C//DTD SVG 1.1//EN" "http://www.w3.org/Graphics/SVG/1.1/DTD/svg11.dtd"><svg width="100%" height="100%" viewBox="0 0 5436 1818" version="1.1" xmlns="http://www.w3.org/2000/svg" xmlns:xlink="http://www.w3.org/1999/xlink" xml:space="preserve" xmlns:serif="http://www.serif.com/" style="fill-rule:evenodd;clip-rule:evenodd;stroke-linejoin:round;stroke-miterlimit:2;"><rect id="apple-appstore" x="0" y="0.026" width="5435.8" height="1817.03" style="fill:none;"/><clipPath id="_clip1"><rect x="0" y="0.026" width="5435.8" height="1817.03"/></clipPath><g clip-path="url(#_clip1)"><g><path d="M5002.93,1.032l-4569.81,-0c-16.658,-0 -33.116,-0 -49.729,0.09c-13.907,0.091 -27.703,0.355 -41.744,0.577c-30.502,0.359 -60.933,3.043 -91.028,8.028c-30.052,5.093 -59.164,14.695 -86.348,28.481c-27.152,13.903 -51.962,31.969 -73.528,53.542c-21.68,21.511 -39.753,46.377 -53.522,73.638c-13.807,27.208 -23.381,56.364 -28.391,86.46c-5.057,30.058 -7.779,60.463 -8.14,90.941c-0.421,13.928 -0.466,27.902 -0.688,41.831l0,1049.98c0.222,14.104 0.267,27.768 0.688,41.878c0.361,30.477 3.083,60.88 8.14,90.937c4.997,30.113 14.571,59.286 28.391,86.504c13.763,27.173 31.838,51.938 53.522,73.33c21.485,21.668 46.31,39.747 73.528,53.543c27.184,13.823 56.292,23.483 86.348,28.654c30.1,4.945 60.528,7.63 91.028,8.032c14.041,0.309 27.837,0.486 41.744,0.486c16.613,0.091 33.072,0.091 49.729,0.091l4569.81,-0c16.326,-0 32.915,-0 49.241,-0.091c13.841,-0 28.037,-0.177 41.878,-0.486c30.443,-0.381 60.813,-3.066 90.851,-8.032c30.152,-5.208 59.365,-14.865 86.681,-28.654c27.192,-13.804 51.995,-31.882 73.462,-53.543c21.628,-21.476 39.741,-46.223 53.675,-73.33c13.716,-27.238 23.2,-56.408 28.123,-86.504c5.065,-30.061 7.883,-60.458 8.431,-90.937c0.177,-14.11 0.177,-27.774 0.177,-41.878c0.354,-16.503 0.354,-32.916 0.354,-49.687l0,-950.695c0,-16.635 0,-33.137 -0.354,-49.595c-0,-13.929 -0,-27.903 -0.177,-41.832c-0.548,-30.482 -3.366,-60.88 -8.431,-90.942c-4.937,-30.079 -14.42,-59.232 -28.123,-86.459c-28.036,-54.636 -72.512,-99.127 -127.137,-127.183c-27.316,-13.752 -56.532,-23.352 -86.681,-28.482c-30.033,-5.006 -60.406,-7.691 -90.851,-8.029c-13.841,-0.222 -28.037,-0.488 -41.878,-0.576c-16.326,-0.091 -32.915,-0.091 -49.241,-0.091l-0,0.006Z" style="fill:#a6a6a6;fill-rule:nonzero;"/><path d="M383.611,1778.3c-13.841,0 -27.347,-0.177 -41.078,-0.486c-28.446,-0.37 -56.826,-2.847 -84.907,-7.409c-26.183,-4.509 -51.549,-12.898 -75.258,-24.888c-23.492,-11.892 -44.919,-27.484 -63.459,-46.18c-18.809,-18.475 -34.469,-39.904 -46.358,-63.437c-12.02,-23.685 -20.338,-49.073 -24.666,-75.279c-4.673,-28.158 -7.201,-56.631 -7.563,-85.173c-0.288,-9.58 -0.665,-41.478 -0.665,-41.478l-0,-1049.35c-0,-0 0.401,-31.408 0.667,-40.635c0.347,-28.496 2.86,-56.925 7.519,-85.04c4.336,-26.277 12.661,-51.739 24.687,-75.501c11.846,-23.516 27.418,-44.961 46.114,-63.503c18.674,-18.718 40.17,-34.391 63.702,-46.446c23.655,-11.952 48.972,-20.282 75.103,-24.709c28.172,-4.608 56.651,-7.099 85.196,-7.452l40.988,-0.555l4668.31,-0l41.478,0.577c28.286,0.336 56.505,2.805 84.419,7.386c26.395,4.482 51.977,12.87 75.902,24.886c47.136,24.292 85.506,62.741 109.702,109.926c11.835,23.599 20.032,48.853 24.312,74.903c4.715,28.346 7.353,56.998 7.895,85.728c0.132,12.864 0.132,26.683 0.132,40.435c0.359,17.035 0.359,33.248 0.359,49.595l-0,950.695c-0,16.503 -0,32.607 -0.359,48.842c-0,14.772 -0,28.304 -0.177,42.232c-0.53,28.217 -3.125,56.358 -7.764,84.196c-4.238,26.395 -12.512,51.981 -24.529,75.861c-11.973,23.276 -27.543,44.52 -46.135,62.946c-18.557,18.796 -40.022,34.48 -63.568,46.447c-23.859,12.083 -49.402,20.503 -75.77,24.975c-28.078,4.586 -56.461,7.063 -84.909,7.409c-13.305,0.309 -27.237,0.486 -40.765,0.486l-49.241,0.091l-4619.32,-0.091Z" style="fill-rule:nonzero;"/></g><path d="M1125.14,923.2c0.992,-76.982 41.463,-148.288 107.048,-188.609c-41.575,-59.377 -108.852,-95.747 -181.301,-98.014c-76.28,-8.007 -150.231,45.645 -189.102,45.645c-39.623,-0 -99.471,-44.85 -163.918,-43.524c-84.696,2.736 -161.978,49.868 -203.184,123.915c-87.853,152.103 -22.323,375.645 61.833,498.594c42.105,60.204 91.313,127.455 155.702,125.07c63.008,-2.614 86.54,-40.178 162.596,-40.178c75.35,-0 97.428,40.178 163.123,38.661c67.61,-1.097 110.208,-60.472 150.836,-121.247c30.252,-42.897 53.531,-90.31 68.975,-140.478c-80.144,-33.897 -132.515,-112.818 -132.608,-199.835Zm-124.086,-367.483c36.851,-44.238 55.024,-101.155 50.628,-158.563c-56.303,5.914 -108.356,32.846 -145.706,75.389c-36.879,41.971 -55.582,96.939 -51.954,152.693c57.037,0.587 111.291,-25.065 147.032,-69.519Z" style="fill:#fff;fill-rule:nonzero;"/><path d="M2958.31,1180.72c0,127.803 -68.404,209.915 -171.632,209.915c-53.27,2.786 -103.659,-25.233 -129.4,-71.954l-1.954,-0l0,203.705l-84.418,0l-0,-547.324l81.712,0l-0,68.405l1.553,-0c26.891,-46.44 77.318,-74.437 130.953,-72.707c104.382,-0 173.186,82.511 173.186,209.96Zm-452.658,-0c0,127.803 -68.404,209.915 -171.632,209.915c-53.27,2.786 -103.659,-25.233 -129.4,-71.954l-1.953,-0l-0,203.705l-84.419,0l-0,-547.324l81.714,0l-0,68.405l1.553,-0c26.891,-46.44 77.317,-74.437 130.953,-72.708c104.379,0.001 173.184,82.512 173.184,209.961Zm751.828,48.441c6.255,55.94 60.597,92.668 134.857,92.668c71.155,0 122.347,-36.73 122.347,-87.169c-0,-43.784 -30.875,-70.001 -103.982,-87.967l-73.106,-17.612c-103.583,-25.019 -151.67,-73.461 -151.67,-152.069c0,-97.328 84.818,-164.179 205.257,-164.179c119.197,-0 200.911,66.851 203.661,164.179l-85.218,0c-5.101,-56.294 -51.636,-90.274 -119.641,-90.274c-68.006,-0 -114.54,34.38 -114.54,84.419c0,39.88 29.722,63.347 102.429,81.311l62.15,15.261c115.737,27.37 163.824,73.861 163.824,156.371c0,105.535 -84.064,171.632 -217.767,171.632c-125.098,0 -209.561,-64.545 -215.017,-166.575l86.416,0.004Zm652.062,-48.441c-0,-129.401 76.211,-210.714 195.054,-210.714c119.242,-0 195.099,81.311 195.099,210.714c0,129.755 -75.457,210.713 -195.099,210.713c-119.599,0 -195.054,-80.958 -195.054,-210.713Zm1059.29,84.817c-11.356,74.659 -84.064,125.896 -177.088,125.896c-119.641,-0 -193.901,-80.16 -193.901,-208.762c-0,-129.001 74.659,-212.666 190.352,-212.666c113.786,0 185.34,78.164 185.34,202.862l-0,28.924l-290.475,-0l0,5.101c-0.278,3.142 -0.418,6.296 -0.418,9.45c0,58.761 48.353,107.114 107.114,107.114c1.313,-0 2.627,-0.024 3.94,-0.073c40.85,3.828 79.634,-19.794 94.977,-57.846l80.159,0Zm-1182.79,-387.802l0,97.327l78.208,0l0,66.852l-78.208,0l0,226.728c0,35.223 15.66,51.636 50.039,51.636c9.285,-0.161 18.554,-0.813 27.77,-1.953l-0,66.453c-15.457,2.888 -31.168,4.196 -46.89,3.904c-83.265,-0 -115.737,-31.275 -115.737,-111.036l0,-235.732l-59.798,0l-0,-66.852l59.797,0l0,-97.327l84.819,-0Zm-1864.44,356.129l-215.017,-0l-51.636,152.468l-91.073,0l203.661,-564.094l94.621,0l203.661,564.094l-92.626,0l-51.591,-152.468Zm2447.7,-258.802l80.515,0l-0,70.001l1.953,0c11.186,-44.895 52.69,-76.07 98.924,-74.304c9.729,-0.034 19.431,1.022 28.924,3.15l-0,78.962c-12.282,-3.753 -25.094,-5.476 -37.931,-5.101c-1.148,-0.047 -2.298,-0.07 -3.448,-0.07c-46.665,-0 -85.065,38.4 -85.065,85.065c-0,3.217 0.182,6.43 0.546,9.626l-0,243.94l-84.419,0l0.001,-411.269Zm-155.617,205.658c0,-88.766 -40.679,-141.157 -109.083,-141.157c-68.405,0 -109.039,52.79 -109.039,141.157c-0,89.12 40.634,141.112 109.039,141.112c68.404,-0 109.081,-51.992 109.081,-141.112l0.002,-0Zm-1794.8,-0c0,-83.265 -43.03,-138.007 -108.684,-138.007c-64.5,-0 -107.885,55.894 -107.885,138.007c-0,82.866 43.385,138.361 107.885,138.361c65.655,0 108.684,-54.342 108.684,-138.361Zm452.658,-0c0,-83.265 -43.03,-138.007 -108.684,-138.007c-64.5,-0 -107.885,55.894 -107.885,138.007c-0,82.866 43.385,138.361 107.885,138.361c65.654,0 108.685,-54.342 108.685,-138.361l-0.001,-0Zm-1142.69,-17.213l170.436,0l-84.019,-247.445l-2.352,0l-84.065,247.445Zm2954.61,-20.716l205.613,-0c0.101,-1.832 0.152,-3.665 0.152,-5.499c0,-54.258 -44.647,-98.905 -98.904,-98.905c-0.709,-0 -1.417,0.007 -2.125,0.023c-0.207,-0.002 -0.414,-0.002 -0.621,-0.002c-57.116,-0 -104.115,46.999 -104.115,104.115l-0,0.268Zm75.369,-529.336c-11.274,38.427 -48.82,63.495 -88.633,59.177c-0.817,0.022 -1.634,0.033 -2.452,0.033c-50.968,-0 -92.909,-41.941 -92.909,-92.91c0,-4.249 0.292,-8.492 0.872,-12.701c-0.556,-4.153 -0.835,-8.338 -0.835,-12.527c0,-51.754 42.588,-94.342 94.342,-94.342c0.268,0 0.536,0.001 0.804,0.003c56.915,0 91.251,38.885 91.251,103.116l-0,14.086l-144.439,0l-0,2.263c-0.127,1.508 -0.191,3.022 -0.191,4.536c0,29.66 24.406,54.066 54.066,54.066c0.2,-0 0.4,-0.001 0.6,-0.004c19.709,2.367 38.994,-7.461 48.664,-24.797l38.86,0.001Zm-1159.77,-47.133c-0.293,-3.067 -0.44,-6.147 -0.44,-9.228c-0,-53.16 43.743,-96.903 96.903,-96.903c53.159,-0 96.903,43.743 96.903,96.903c-0,3.081 -0.147,6.161 -0.441,9.228c0.305,3.122 0.457,6.257 0.457,9.394c-0,53.168 -43.751,96.918 -96.919,96.918c-53.168,0 -96.919,-43.75 -96.919,-96.918c-0,-3.137 0.152,-6.272 0.456,-9.394Zm-1705.7,-0c-0.294,-3.067 -0.441,-6.147 -0.441,-9.228c0,-53.16 43.744,-96.903 96.903,-96.903c53.16,-0 96.903,43.743 96.903,96.903c0,3.081 -0.147,6.161 -0.44,9.228c0.304,3.122 0.456,6.257 0.456,9.394c0,53.168 -43.751,96.918 -96.919,96.918c-53.168,0 -96.919,-43.75 -96.919,-96.918c0,-3.137 0.153,-6.272 0.457,-9.394Zm887.483,-0c-0.293,-3.065 -0.44,-6.142 -0.44,-9.222c-0,-53.165 43.748,-96.913 96.913,-96.913c53.166,-0 96.914,43.748 96.914,96.913c-0,3.08 -0.147,6.157 -0.44,9.222c0.303,3.118 0.455,6.249 0.455,9.382c0,53.174 -43.755,96.929 -96.929,96.929c-53.173,0 -96.929,-43.755 -96.929,-96.929c0,-3.133 0.152,-6.264 0.456,-9.382Zm235.445,44.516c-0,-36.82 27.415,-58.046 76.079,-61.063l55.406,-3.194l0,-17.655c0,-21.604 -14.284,-33.803 -41.876,-33.803c-22.535,-0 -38.15,8.273 -42.631,22.735l-39.082,-0c4.126,-35.134 37.175,-57.669 83.576,-57.669c51.281,-0 80.205,25.529 80.205,68.737l-0,139.759l-38.861,-0l0,-28.746l-3.193,-0c-13.182,20.965 -36.702,33.26 -61.44,32.116c-2.124,0.221 -4.258,0.331 -6.393,0.331c-33.806,0 -61.658,-27.742 -61.79,-61.548Zm224.732,-44.516c-0,-64.634 33.226,-105.579 84.906,-105.579c26.052,-1.2 50.558,12.82 62.727,35.886l3.016,0l0,-112.342l40.369,-0l-0,284.397l-38.683,-0l0,-32.317l-3.194,-0c-13.091,22.88 -37.891,36.659 -64.234,35.688c-52.036,0.002 -84.907,-40.944 -84.907,-105.733Zm1006.95,-153.112l-0,51.858l44.316,0l0,34.003l-44.316,-0l-0,105.179c-0,21.427 8.828,30.809 28.923,30.809c5.145,-0.017 10.284,-0.328 15.393,-0.932l0,33.626c-7.249,1.296 -14.594,1.986 -21.958,2.062c-44.893,0 -62.771,-15.792 -62.771,-55.229l-0,-115.517l-32.472,0l-0,-34.003l32.472,0l-0,-51.856l40.413,0Zm-2529.7,-15.568c2.856,-0.205 5.719,-0.308 8.582,-0.308c65.779,0 119.907,54.128 119.907,119.907c0,5.042 -0.318,10.078 -0.952,15.08c0,86.592 -46.8,136.367 -127.537,136.367l-97.905,0l0,-271.046l97.905,-0Zm2127.88,66.494l38.86,0l0,32.495l3.017,-0c10.464,-23.865 35.068,-38.554 61.04,-36.443c1.66,-0.125 3.324,-0.187 4.988,-0.187c36.497,-0 66.529,30.032 66.529,66.528c-0,3.259 -0.24,6.514 -0.717,9.738l0,132.415l-40.368,-0l-0,-122.278c-0,-32.871 -14.284,-49.219 -44.139,-49.219c-0.727,-0.034 -1.455,-0.051 -2.183,-0.051c-25.741,0 -46.922,21.182 -46.922,46.922c-0,1.659 0.088,3.316 0.263,4.965l0,119.663l-40.368,0l-0,-204.548Zm-1503.41,204.548l-41.876,0l-42.276,-150.649l-3.194,-0l-42.098,150.649l-41.478,0l-56.383,-204.548l40.946,0l36.642,156.082l3.016,0l42.054,-156.082l38.727,0l42.054,156.082l3.194,0l36.465,-156.082l40.368,0l-56.161,204.548Zm103.583,-204.548l38.86,0l-0,32.495l3.016,-0c10.465,-23.865 35.068,-38.554 61.041,-36.443c1.659,-0.125 3.323,-0.187 4.988,-0.187c36.496,-0 66.528,30.032 66.528,66.528c0,3.259 -0.239,6.514 -0.716,9.738l-0,132.415l-40.369,-0l0,-122.278c0,-32.871 -14.284,-49.219 -44.139,-49.219c-0.727,-0.034 -1.455,-0.051 -2.183,-0.051c-25.74,0 -46.922,21.182 -46.922,46.922c0,1.659 0.088,3.316 0.264,4.965l-0,119.663l-40.369,0l0.001,-204.548Zm1901.11,-79.849l40.013,-0l0,112.721l3.194,-0c10.968,-24.077 35.999,-38.782 62.369,-36.642c1.219,-0.067 2.44,-0.1 3.661,-0.1c36.966,0 67.384,30.418 67.384,67.384c0,3.001 -0.2,5.998 -0.6,8.972l0,132.062l-40.409,0l0,-122.104c0,-32.671 -15.217,-49.218 -43.739,-49.218c-1.3,-0.107 -2.603,-0.16 -3.906,-0.16c-26.214,0 -47.785,21.571 -47.785,47.785c-0,1.413 0.063,2.825 0.188,4.233l-0,119.463l-40.369,0l-0.001,-284.396Zm-1663.07,-0l40.368,-0l0,284.397l-40.368,-0l-0,-284.397Zm463.415,209.073l0,-17.101l-49.95,3.194c-28.169,1.885 -40.945,11.467 -40.945,29.499c-0,18.41 15.97,29.123 37.93,29.123c1.614,0.164 3.235,0.245 4.856,0.245c25.225,0 46.405,-19.793 48.109,-44.96Zm-215.527,-27.038c-0,-44.339 -19.918,-70.267 -54.874,-70.267c-35.09,-0 -54.829,25.928 -54.829,70.267c0,44.694 19.741,70.423 54.829,70.423c34.956,-0 54.874,-25.907 54.874,-70.423l-0,-0Zm818.213,-0c0,-44.339 -19.918,-70.267 -54.874,-70.267c-35.089,-0 -54.828,25.928 -54.828,70.267c-0,44.694 19.74,70.423 54.828,70.423c34.957,-0 54.874,-25.907 54.874,-70.423Zm-1705.7,-0c-0,-44.339 -19.918,-70.267 -54.874,-70.267c-35.09,-0 -54.829,25.928 -54.829,70.267c0,44.694 19.741,70.423 54.829,70.423c34.957,-0 54.874,-25.907 54.874,-70.423l-0,-0Zm1237.96,-0c0,43.385 20.451,69.491 54.653,69.491c34.024,0 55.052,-26.483 55.052,-69.313c-0,-42.631 -21.249,-69.492 -55.052,-69.492c-33.982,0 -54.654,26.284 -54.654,69.314l0.001,-0Zm-1620.26,64.034l51.104,0c1.693,0.102 3.389,0.152 5.085,0.152c46.746,0 85.212,-38.466 85.212,-85.212c0,-4.158 -0.304,-8.31 -0.91,-12.423c0.528,-3.849 0.793,-7.729 0.793,-11.614c0,-46.874 -38.571,-85.445 -85.445,-85.445c-1.579,-0 -3.158,0.043 -4.735,0.131l-51.104,-0l0,194.411Zm2954.37,-82.821l103.316,-0c0.09,-1.214 0.135,-2.431 0.135,-3.648c0,-27.075 -22.279,-49.354 -49.353,-49.354c-0.377,0 -0.755,0.004 -1.132,0.013c-0.219,-0.003 -0.438,-0.004 -0.657,-0.004c-28.698,-0 -52.313,23.615 -52.313,52.313l0.004,0.68Z" style="fill:#fff;fill-rule:nonzero;"/></g></svg>