<?xml version="1.0" encoding="UTF-8" standalone="no"?><!DOCTYPE svg PUBLIC "-//W3C//DTD SVG 1.1//EN" "http://www.w3.org/Graphics/SVG/1.1/DTD/svg11.dtd"><svg width="100%" height="100%" viewBox="0 0 5436 1818" version="1.1" xmlns="http://www.w3.org/2000/svg" xmlns:xlink="http://www.w3.org/1999/xlink" xml:space="preserve" xmlns:serif="http://www.serif.com/" style="fill-rule:evenodd;clip-rule:evenodd;stroke-linejoin:round;stroke-miterlimit:2;"><rect id="google-play" x="0" y="0" width="5435.8" height="1817.03" style="fill:none;"/><clipPath id="_clip1"><rect x="0" y="0" width="5435.8" height="1817.03"/></clipPath><g clip-path="url(#_clip1)"><g><g><path d="M5002.93,1.006l-4569.81,-0c-16.658,-0 -33.116,-0 -49.729,0.091c-13.907,0.09 -27.703,0.354 -41.744,0.577c-30.502,0.358 -60.933,3.042 -91.028,8.027c-30.052,5.093 -59.164,14.695 -86.348,28.481c-27.152,13.903 -51.962,31.969 -73.528,53.542c-21.68,21.511 -39.753,46.377 -53.522,73.638c-13.807,27.208 -23.381,56.364 -28.391,86.46c-5.057,30.058 -7.779,60.463 -8.14,90.942c-0.421,13.927 -0.466,27.901 -0.688,41.83l0,1049.98c0.222,14.105 0.267,27.769 0.688,41.878c0.361,30.477 3.083,60.88 8.14,90.937c4.997,30.114 14.571,59.286 28.391,86.504c13.763,27.173 31.838,51.938 53.522,73.33c21.485,21.669 46.31,39.747 73.528,53.543c27.184,13.823 56.292,23.483 86.348,28.655c30.1,4.944 60.528,7.629 91.028,8.031c14.041,0.309 27.837,0.486 41.744,0.486c16.613,0.091 33.072,0.091 49.729,0.091l4569.81,-0c16.326,-0 32.915,-0 49.241,-0.091c13.841,-0 28.037,-0.177 41.878,-0.486c30.443,-0.381 60.813,-3.065 90.851,-8.031c30.152,-5.209 59.365,-14.866 86.681,-28.655c27.192,-13.804 51.995,-31.882 73.462,-53.543c21.628,-21.476 39.741,-46.223 53.675,-73.33c13.716,-27.238 23.2,-56.408 28.123,-86.504c5.065,-30.061 7.883,-60.458 8.431,-90.937c0.177,-14.109 0.177,-27.773 0.177,-41.878c0.354,-16.503 0.354,-32.915 0.354,-49.687l0,-950.695c0,-16.635 0,-33.137 -0.354,-49.595c-0,-13.929 -0,-27.903 -0.177,-41.832c-0.548,-30.482 -3.366,-60.88 -8.431,-90.942c-4.937,-30.079 -14.42,-59.232 -28.123,-86.459c-28.036,-54.636 -72.512,-99.127 -127.137,-127.183c-27.316,-13.752 -56.532,-23.352 -86.681,-28.481c-30.033,-5.007 -60.406,-7.692 -90.851,-8.03c-13.841,-0.222 -28.037,-0.488 -41.878,-0.576c-16.326,-0.091 -32.915,-0.091 -49.241,-0.091l-0,0.006Z" style="fill:#a6a6a6;fill-rule:nonzero;"/><path d="M383.611,1778.28c-13.841,0 -27.347,-0.177 -41.078,-0.486c-28.446,-0.37 -56.826,-2.847 -84.907,-7.409c-26.183,-4.509 -51.549,-12.898 -75.258,-24.888c-23.492,-11.891 -44.919,-27.484 -63.459,-46.18c-18.809,-18.475 -34.469,-39.904 -46.358,-63.436c-12.02,-23.686 -20.338,-49.074 -24.666,-75.28c-4.673,-28.158 -7.201,-56.631 -7.563,-85.172c-0.288,-9.581 -0.665,-41.478 -0.665,-41.478l-0,-1049.36c-0,0 0.401,-31.408 0.667,-40.635c0.347,-28.496 2.86,-56.925 7.519,-85.04c4.336,-26.277 12.661,-51.738 24.687,-75.501c11.846,-23.516 27.418,-44.961 46.114,-63.503c18.674,-18.718 40.17,-34.39 63.702,-46.446c23.655,-11.952 48.972,-20.282 75.103,-24.709c28.172,-4.607 56.651,-7.099 85.196,-7.452l40.988,-0.555l4668.31,0l41.478,0.577c28.286,0.336 56.505,2.805 84.419,7.386c26.395,4.483 51.977,12.87 75.902,24.886c47.136,24.292 85.506,62.741 109.702,109.927c11.835,23.598 20.032,48.852 24.312,74.903c4.715,28.345 7.353,56.997 7.895,85.727c0.132,12.865 0.132,26.683 0.132,40.435c0.359,17.035 0.359,33.248 0.359,49.595l-0,950.695c-0,16.504 -0,32.607 -0.359,48.842c-0,14.772 -0,28.305 -0.177,42.232c-0.53,28.217 -3.125,56.358 -7.764,84.196c-4.238,26.395 -12.512,51.981 -24.529,75.861c-11.973,23.277 -27.543,44.52 -46.135,62.946c-18.557,18.796 -40.022,34.48 -63.568,46.448c-23.859,12.082 -49.402,20.502 -75.77,24.974c-28.078,4.587 -56.461,7.063 -84.909,7.409c-13.305,0.309 -27.237,0.486 -40.765,0.486l-49.241,0.091l-4619.32,-0.091Z" style="fill-rule:nonzero;"/></g><g id="_Group_"></g></g><path d="M3190.6,1001.16l-2.7,0c-16.9,-20.1 -49,-38.3 -90,-38.3c-85.1,0 -163.5,74.9 -163.5,171.1c0,95.8 78,169.8 163.5,169.8c40.5,0 73.1,-18.3 90,-38.8l2.7,0l0,24.5c0,65.1 -34.8,100.2 -90.9,100.2c-45.9,0 -74.4,-33 -86,-60.6l-65.1,27.2c18.7,45 68.6,100.7 151,100.7c87.8,0 162.2,-51.7 162.2,-177.8l0,-306.1l-70.8,0l0,28.1c0.1,0 -0.4,0 -0.4,0Zm1771.6,-28.1l-86,217.4l-2.7,0l-89.1,-217.4l-80.6,0l133.7,303.9l-76.2,168.9l78,0l205.7,-472.8l-82.8,0Zm-2603.4,-9.8c-94.5,0 -171.1,71.7 -171.1,170.6c0,98 77.1,170.6 171.1,170.6c94.5,0 171.1,-72.2 171.1,-170.6c0,-98.9 -76.7,-170.6 -171.1,-170.6Zm373.3,0c-94.5,0 -171.1,71.7 -171.1,170.6c0,98 77.1,170.6 171.1,170.6c94.5,0 171.1,-72.2 171.1,-170.6c0,-98.9 -76.6,-170.6 -171.1,-170.6Zm999.4,108.3c-14.3,-38.3 -57.5,-108.7 -146.1,-108.7c-87.8,0 -160.8,69.1 -160.8,170.6c0,95.8 72.2,170.6 169.3,170.6c78,0 123.4,-47.7 142.1,-75.7l-57.9,-38.8c-19.2,28.5 -45.9,47.2 -83.8,47.2c-38.3,0 -65.1,-17.4 -82.9,-51.7l228.1,-94.5c0,0.1 -8,-19 -8,-19Zm815.4,-109.2c-54.4,0 -110.5,24.1 -133.7,76.6l66.4,27.6c14.3,-27.6 40.5,-37 68.2,-37c38.8,0 78,23.2 78.9,64.6l0,5.3c-13.4,-7.6 -42.8,-19.2 -78,-19.2c-71.7,0 -144.4,39.2 -144.4,112.7c0,67.3 58.8,110.5 124.3,110.5c50.3,0 78,-22.7 95.3,-49l2.7,0l0,38.8l72.2,0l0,-192c0,-89.4 -66.4,-138.9 -151.9,-138.9Zm-2632.37,52.2c-0.008,-0.01 -0.017,-0.01 -0.028,0l0.028,0c0.072,0.081 0.072,0.8 0.072,0.8l0,72.2l173.3,0c-5.3,40.5 -18.7,70.4 -39.2,90.9c-25.4,25.4 -64.6,53 -133.7,53c-106.5,0 -189.8,-86 -189.8,-192.5c0,-106.5 83.3,-192.5 189.8,-192.5c57.5,0 99.4,22.7 130.5,51.7l51.2,-51.2c-43.2,-41.4 -100.7,-73.1 -181.3,-73.1c-146.1,0 -268.7,119 -268.7,264.7c0,146.1 122.5,264.7 268.7,264.7c78.9,0 138.1,-25.8 184.9,-74.4c47.7,-47.7 62.8,-115 62.8,-169.3c0,-16.9 -1.3,-32.1 -4,-45l-244.572,0Zm2373.47,279.3l74.9,0l0,-501.2l-74.9,0l0,501.2Zm-974.4,0l74.9,0l0,-501.2l-74.9,0l0,501.2Zm768.6,-501.2l-179.1,0l0,501.2l74.9,0l0,-189.8l104.3,0c82.9,0 164.4,-60.1 164.4,-155.5c0,-95.4 -81.2,-155.9 -164.5,-155.9Zm-1350.1,444.2c-51.7,0 -96.2,-42.8 -96.2,-103.4c0,-61.5 44.6,-103.4 96.2,-103.4c51.7,0 96.2,41.9 96.2,103.4c0.1,61 -44.5,103.4 -96.2,103.4Zm-373.3,0c-51.7,0 -96.2,-42.8 -96.2,-103.4c0,-61.5 44.6,-103.4 96.2,-103.4c51.7,0 96.2,41.9 96.2,103.4c0,61 -44.5,103.4 -96.2,103.4Zm745.8,0c-51.7,0 -94.9,-43.2 -94.9,-102.9c0,-60.2 43.2,-103.8 94.9,-103.8c51.2,0 90.9,44.1 90.9,103.8c0.5,59.7 -39.6,102.9 -90.9,102.9Zm1432.9,0c-24.5,0 -58.8,-12 -58.8,-42.8c0,-38.8 42.8,-53.5 79.3,-53.5c33,0 48.6,7.1 68.2,16.9c-5.4,45 -43.4,79 -88.7,79.4Zm-1038.6,-108.3c-1.8,-65.9 51.2,-99.4 89.1,-99.4c29.9,0 54.8,14.7 63.3,36.1l-152.4,63.3Zm585.5,-94.5l-106.5,0l0,-172l106.5,0c56.1,0 87.8,46.3 87.8,86c0,39.3 -32.1,86 -87.8,86Zm-2300.9,-412.6c-35.5,0 -66.3,-12.5 -91.5,-37.2c-25,-24.6 -37.7,-55.7 -37.7,-92.4c0,-36.7 12.7,-67.8 37.7,-92.4c24.7,-24.7 55.5,-37.2 91.5,-37.2c17.6,0 34.7,3.5 51.1,10.6c16.1,6.9 29.2,16.3 38.9,27.8l2.4,2.9l-27.1,26.6l-2.8,-3.3c-15.3,-18.2 -35.8,-27.1 -62.9,-27.1c-24.2,0 -45.3,8.6 -62.7,25.6c-17.5,17.1 -26.4,39.5 -26.4,66.6c0,27.1 8.9,49.5 26.4,66.6c17.4,17 38.5,25.6 62.7,25.6c25.8,0 47.5,-8.6 64.4,-25.6c10,-10 16.2,-24 18.4,-41.7l-86.9,0l0,-37.4l124.2,0l0.5,3.4c0.9,6.3 1.8,12.8 1.8,18.8c0,34.5 -10.4,62.4 -31,83c-23.4,24.4 -54,36.8 -91,36.8Zm1080.1,0c-36.3,0 -66.9,-12.7 -91.1,-37.7c-24,-24.3 -37.4,-57.8 -36.8,-92c0,-36.5 12.4,-67.4 36.8,-91.9c24.1,-25 54.7,-37.7 91,-37.7c35.9,0 66.5,12.7 91.1,37.7c24.4,25.3 36.8,56.2 36.8,91.9c-0.4,36.6 -12.8,67.5 -36.8,91.9c-24.1,25.2 -54.7,37.8 -91,37.8Zm-425.5,-5.3l-38.7,0l0,-248.6l38.7,0l0,248.6Zm204.9,-211.2l-67.3,0l0,211.2l-38.7,0l0,-211.2l-67.3,0l0,-37.4l173.3,0l0,37.4Zm576.6,211.2l-38.3,0l-117.3,-187.7l1,33.8l0,153.8l-38.3,0l0,-248.5l43.7,0l1.2,1.9l110.3,176.8l-1,-33.7l0,-145l38.7,0l0,248.6Zm-999,0l-38.7,0l0,-211.2l-67.3,0l0,-37.4l173.3,0l0,37.4l-67.3,0l0,211.2Zm-130.5,-0.4l-148.4,0l0,-248.2l148.4,0l0,37.4l-109.6,0l0,68.2l98.9,0l0,37l-98.9,0l0,68.2l109.6,0l0,37.4Zm710.8,-57.7c17.3,17.3 38.3,26 62.7,26c25.1,0 45.6,-8.5 62.7,-26c17,-17 25.6,-39.3 25.6,-66.2c0,-26.9 -8.6,-49.3 -25.5,-66.2c-17.3,-17.3 -38.4,-26 -62.7,-26c-25.1,0 -45.6,8.5 -62.6,26c-17,17 -25.6,39.3 -25.6,66.2c0,26.9 8.5,49.3 25.4,66.2Z" style="fill:#fff;fill-rule:nonzero;"/><g><path d="M418.4,392.961c-11.6,12.5 -18.3,31.6 -18.3,56.6l-0,886.7c-0,25 6.7,44.1 18.7,56.1l3.1,2.7l496.8,-496.8l0,-11.1l-497.2,-496.9l-3.1,2.7Z" style="fill:url(#_Linear2);"/><path d="M1084,1064.36l-165.7,-165.7l0,-11.6l165.7,-165.7l3.6,2.2l196,111.4c56.1,31.6 56.1,83.8 0,115.8l-196,111.4l-3.6,2.2Z" style="fill:url(#_Linear3);"/><path d="M1087.6,1062.16l-169.3,-169.3l-499.9,499.9c18.3,19.6 49,21.8 83.3,2.7l585.9,-333.3" style="fill:url(#_Linear4);"/><path d="M1087.6,723.561l-585.9,-332.8c-34.3,-19.6 -65.1,-16.9 -83.3,2.7l499.9,499.4l169.3,-169.3Z" style="fill:url(#_Linear5);"/><path d="M1084,1058.56l-581.9,330.6c-32.5,18.7 -61.5,17.4 -80.2,0.4l-3.1,3.1l3.1,2.7c18.7,16.9 47.7,18.3 80.2,-0.4l585.9,-332.8l-4,-3.6Z" style="fill-opacity:0.2;"/><path d="M1283.6,944.961l-200.1,113.6l3.6,3.6l196,-111.4c28.1,-16 41.9,-37 41.9,-57.9c-1.7,19.2 -16,37.4 -41.4,52.1Z" style="fill-opacity:0.12;"/><path d="M501.7,396.561l781.9,444.2c25.4,14.3 39.7,33 41.9,52.1c0,-20.9 -13.8,-41.9 -41.9,-57.9l-781.9,-444.2c-56.1,-32.1 -101.6,-5.3 -101.6,58.8l0,5.8c0,-64.2 45.5,-90.5 101.6,-58.8Z" style="fill:#fff;fill-opacity:0.25;"/></g></g><defs><linearGradient id="_Linear2" x1="0" y1="0" x2="1" y2="0" gradientUnits="userSpaceOnUse" gradientTransform="matrix(-672.97,672.978,-672.978,-672.97,874.138,439.995)"><stop offset="0" style="stop-color:#00a0ff;stop-opacity:1"/><stop offset="0.01" style="stop-color:#00a1ff;stop-opacity:1"/><stop offset="0.26" style="stop-color:#00beff;stop-opacity:1"/><stop offset="0.51" style="stop-color:#00d2ff;stop-opacity:1"/><stop offset="0.76" style="stop-color:#00dfff;stop-opacity:1"/><stop offset="1" style="stop-color:#00e3ff;stop-opacity:1"/></linearGradient><linearGradient id="_Linear3" x1="0" y1="0" x2="1" y2="0" gradientUnits="userSpaceOnUse" gradientTransform="matrix(-970.295,1.18827e-13,-1.18827e-13,-970.295,1356.76,892.863)"><stop offset="0" style="stop-color:#ffe000;stop-opacity:1"/><stop offset="0.41" style="stop-color:#ffbd00;stop-opacity:1"/><stop offset="0.78" style="stop-color:#ffa500;stop-opacity:1"/><stop offset="1" style="stop-color:#ff9c00;stop-opacity:1"/></linearGradient><linearGradient id="_Linear4" x1="0" y1="0" x2="1" y2="0" gradientUnits="userSpaceOnUse" gradientTransform="matrix(-912.606,912.596,-912.596,-912.606,995.541,984.985)"><stop offset="0" style="stop-color:#ff3a44;stop-opacity:1"/><stop offset="1" style="stop-color:#c31162;stop-opacity:1"/></linearGradient><linearGradient id="_Linear5" x1="0" y1="0" x2="1" y2="0" gradientUnits="userSpaceOnUse" gradientTransform="matrix(407.512,407.519,-407.519,407.512,292.52,98.0307)"><stop offset="0" style="stop-color:#32a071;stop-opacity:1"/><stop offset="0.07" style="stop-color:#2da771;stop-opacity:1"/><stop offset="0.48" style="stop-color:#15cf74;stop-opacity:1"/><stop offset="0.8" style="stop-color:#06e775;stop-opacity:1"/><stop offset="1" style="stop-color:#00f076;stop-opacity:1"/></linearGradient></defs></svg>